<svg data-logo="logo" xmlns="http://www.w3.org/2000/svg" viewBox="0 0 211 43">
    <g style="opacity: 1;" id="logogram" transform="translate(0, 1) rotate(0)"><path fill-rule="evenodd" clip-rule="evenodd" d="M0.603516 15.43V31.43H5.60352C6.12878 31.43 6.64893 31.5334 7.13428 31.7345C7.61951 31.9355 8.06055 32.2301 8.43188 32.6016C8.80334 32.973 9.09802 33.414 9.29907 33.8993C9.5 34.3846 9.60352 34.9047 9.60352 35.43V40.43H21.6035L36.6035 25.43V9.42999H31.6035C31.0782 9.42999 30.5581 9.32654 30.0728 9.12552C29.5875 8.9245 29.1465 8.62985 28.7751 8.25842C28.4037 7.88699 28.109 7.44601 27.908 6.96072C27.707 6.47543 27.6035 5.95529 27.6035 5.42999V0.429993H15.6035L0.603516 15.43ZM17.6035 30.43H10.6035V19.43L19.6035 10.43H26.6035V21.43L17.6035 30.43Z" fill="#0004E8"></path></g>
    <g style="opacity: 1;" id="logotype" transform="translate(43, 8)"><path fill="#fff" d="M22.06 21.33L22.06 21.33Q22.06 23.27 21.15 24.62Q20.24 25.96 18.42 26.65Q16.61 27.34 13.91 27.34L13.91 27.34Q11.91 27.34 10.49 27.09Q9.06 26.83 7.61 26.23L7.61 26.23L7.61 21.92Q9.16 22.63 10.95 23.08Q12.73 23.53 14.08 23.53L14.08 23.53Q15.60 23.53 16.26 23.08Q16.92 22.63 16.92 21.89L16.92 21.89Q16.92 21.41 16.66 21.03Q16.39 20.64 15.52 20.16Q14.65 19.67 12.78 18.88L12.78 18.88Q10.99 18.13 9.84 17.36Q8.68 16.59 8.13 15.54Q7.57 14.49 7.57 12.87L7.57 12.87Q7.57 10.22 9.63 8.88Q11.69 7.53 15.14 7.53L15.14 7.53Q16.92 7.53 18.54 7.89Q20.15 8.25 21.86 9.04L21.86 9.04L20.29 12.80Q18.87 12.18 17.61 11.79Q16.36 11.40 15.06 11.40L15.06 11.40Q13.91 11.40 13.33 11.70Q12.75 12.01 12.75 12.64L12.75 12.64Q12.75 13.11 13.05 13.46Q13.35 13.82 14.21 14.26Q15.07 14.70 16.75 15.38L16.75 15.38Q18.37 16.05 19.57 16.77Q20.77 17.50 21.42 18.57Q22.06 19.63 22.06 21.33ZM32.43 23.19L32.43 23.19Q33.29 23.19 34.10 23.02Q34.91 22.85 35.71 22.59L35.71 22.59L35.71 26.47Q34.88 26.85 33.64 27.09Q32.40 27.34 30.93 27.34L30.93 27.34Q29.22 27.34 27.86 26.79Q26.50 26.23 25.72 24.86Q24.95 23.48 24.95 21.02L24.95 21.02L24.95 11.81L22.45 11.81L22.45 9.60L25.32 7.86L26.83 3.83L30.16 3.83L30.16 7.89L35.51 7.89L35.51 11.81L30.16 11.81L30.16 21.02Q30.16 22.11 30.78 22.65Q31.41 23.19 32.43 23.19ZM55.19 17.41L55.19 17.41Q55.19 19.81 54.55 21.65Q53.91 23.50 52.68 24.77Q51.46 26.04 49.74 26.69Q48.03 27.34 45.87 27.34L45.87 27.34Q43.86 27.34 42.17 26.69Q40.49 26.04 39.25 24.77Q38.01 23.50 37.34 21.65Q36.66 19.81 36.66 17.41L36.66 17.41Q36.66 14.23 37.79 12.03Q38.92 9.82 41.00 8.68Q43.09 7.53 45.98 7.53L45.98 7.53Q48.66 7.53 50.74 8.68Q52.81 9.82 54.00 12.03Q55.19 14.23 55.19 17.41ZM41.98 17.41L41.98 17.41Q41.98 19.29 42.39 20.57Q42.80 21.86 43.67 22.51Q44.54 23.15 45.94 23.15L45.94 23.15Q47.33 23.15 48.19 22.51Q49.05 21.86 49.45 20.57Q49.86 19.29 49.86 17.41L49.86 17.41Q49.86 15.52 49.45 14.26Q49.05 13.00 48.18 12.37Q47.31 11.74 45.91 11.74L45.91 11.74Q43.84 11.74 42.91 13.16Q41.98 14.58 41.98 17.41ZM65.50 27.34L65.50 27.34Q62.67 27.34 60.67 26.31Q58.67 25.27 57.63 23.10Q56.58 20.93 56.58 17.55L56.58 17.55Q56.58 14.05 57.77 11.83Q58.96 9.62 61.07 8.58Q63.18 7.53 65.96 7.53L65.96 7.53Q67.95 7.53 69.39 7.92Q70.84 8.30 71.91 8.83L71.91 8.83L70.37 12.87Q69.14 12.37 68.08 12.05Q67.02 11.74 65.96 11.74L65.96 11.74Q64.60 11.74 63.69 12.38Q62.79 13.02 62.34 14.30Q61.90 15.58 61.90 17.52L61.90 17.52Q61.90 19.41 62.38 20.66Q62.85 21.91 63.76 22.51Q64.67 23.12 65.96 23.12L65.96 23.12Q67.59 23.12 68.85 22.68Q70.12 22.25 71.31 21.46L71.31 21.46L71.31 25.92Q70.12 26.68 68.81 27.01Q67.50 27.34 65.50 27.34ZM73.99 0.41L79.20 0.41L79.20 12.30Q79.20 13.38 79.12 14.46Q79.03 15.53 78.93 16.61L78.93 16.61L79.00 16.61Q79.53 15.86 80.08 15.12Q80.64 14.39 81.27 13.70L81.27 13.70L86.62 7.89L92.50 7.89L84.91 16.18L92.96 27L86.94 27L81.44 19.26L79.20 21.05L79.20 27L73.99 27L73.99 0.41ZM103.84 27L98.49 27L91.21 7.89L96.66 7.89L100.35 18.78Q100.66 19.74 100.84 20.80Q101.02 21.86 101.09 22.69L101.09 22.69L101.22 22.69Q101.28 21.79 101.47 20.76Q101.67 19.74 101.99 18.78L101.99 18.78L105.67 7.89L111.12 7.89L103.84 27ZM112.10 7.89L117.32 7.89L117.32 27L112.10 27L112.10 7.89ZM114.72 0.41L114.72 0.41Q115.88 0.41 116.72 0.95Q117.56 1.48 117.56 2.95L117.56 2.95Q117.56 4.41 116.72 4.96Q115.88 5.52 114.72 5.52L114.72 5.52Q113.54 5.52 112.71 4.96Q111.88 4.41 111.88 2.95L111.88 2.95Q111.88 1.48 112.71 0.95Q113.54 0.41 114.72 0.41ZM128.91 7.53L128.91 7.53Q131.56 7.53 133.48 8.55Q135.39 9.57 136.43 11.50Q137.48 13.43 137.48 16.22L137.48 16.22L137.48 18.75L125.15 18.75Q125.24 20.95 126.48 22.21Q127.72 23.46 129.92 23.46L129.92 23.46Q131.75 23.46 133.27 23.09Q134.79 22.71 136.40 21.96L136.40 21.96L136.40 25.99Q134.98 26.69 133.43 27.02Q131.89 27.34 129.68 27.34L129.68 27.34Q126.81 27.34 124.60 26.28Q122.39 25.22 121.13 23.05Q119.87 20.88 119.87 17.58L119.87 17.58Q119.87 14.23 121.01 12.00Q122.15 9.77 124.18 8.65Q126.21 7.53 128.91 7.53ZM128.95 11.24L128.95 11.24Q127.43 11.24 126.43 12.22Q125.43 13.19 125.27 15.28L125.27 15.28L132.59 15.28Q132.57 14.11 132.17 13.21Q131.77 12.30 130.97 11.77Q130.18 11.24 128.95 11.24ZM161.34 27L155.67 27L154.20 20.32Q154.08 19.72 153.81 18.55Q153.53 17.38 153.22 16.04Q152.90 14.70 152.64 13.55Q152.37 12.41 152.25 11.88L152.25 11.88L152.10 11.88Q151.98 12.41 151.72 13.55Q151.47 14.70 151.15 16.05Q150.83 17.40 150.56 18.58Q150.29 19.77 150.15 20.39L150.15 20.39L148.61 27L143.01 27L137.57 7.89L142.77 7.89L144.97 16.35Q145.19 17.24 145.40 18.46Q145.60 19.69 145.77 20.82Q145.93 21.96 146.01 22.63L146.01 22.63L146.15 22.63Q146.18 22.13 146.30 21.31Q146.41 20.49 146.55 19.61Q146.70 18.73 146.83 18.02Q146.95 17.31 147.02 17.05L147.02 17.05L149.38 7.89L155.12 7.89L157.36 17.05Q157.48 17.55 157.68 18.63Q157.87 19.70 158.03 20.84Q158.18 21.98 158.20 22.63L158.20 22.63L158.34 22.63Q158.40 22.04 158.57 20.90Q158.75 19.75 158.98 18.50Q159.21 17.24 159.45 16.35L159.45 16.35L161.74 7.89L166.85 7.89L161.34 27Z"></path></g>
</svg>